<?xml version="1.0" encoding="UTF-8" standalone="no"?>
<svg
   xmlns:dc="http://purl.org/dc/elements/1.1/"
   xmlns:cc="http://creativecommons.org/ns#"
   xmlns:rdf="http://www.w3.org/1999/02/22-rdf-syntax-ns#"
   xmlns:svg="http://www.w3.org/2000/svg"
   xmlns="http://www.w3.org/2000/svg"
   xmlns:sodipodi="http://sodipodi.sourceforge.net/DTD/sodipodi-0.dtd"
   xmlns:inkscape="http://www.inkscape.org/namespaces/inkscape"
   inkscape:version="1.0beta1 (32d4812, 2019-09-19)"
   sodipodi:docname="Search_SVG.svg"
   id="svg1113"
   version="1.1"
   viewBox="0 0 438.57 500">
  <metadata
     id="metadata1117">
    <rdf:RDF>
      <cc:Work
         rdf:about="">
        <dc:format>image/svg+xml</dc:format>
        <dc:type
           rdf:resource="http://purl.org/dc/dcmitype/StillImage" />
      </cc:Work>
    </rdf:RDF>
  </metadata>
  <sodipodi:namedview
     inkscape:current-layer="_Группа_3"
     inkscape:window-maximized="0"
     inkscape:window-y="23"
     inkscape:window-x="0"
     inkscape:cy="269.56259"
     inkscape:cx="235.594"
     inkscape:zoom="1.2767251"
     showgrid="false"
     id="namedview1115"
     inkscape:window-height="802"
     inkscape:window-width="1440"
     inkscape:pageshadow="2"
     inkscape:pageopacity="0"
     guidetolerance="10"
     gridtolerance="10"
     objecttolerance="10"
     borderopacity="1"
     inkscape:document-rotation="0"
     bordercolor="#666666"
     pagecolor="#ffffff" />
  <defs
     id="defs835">
    <style
       id="style833">.cls-1,.cls-11,.cls-12{fill:#d6d8e5;}.cls-2{fill:#fafbfc;}.cls-3{fill:#e9eaf2;}.cls-4{fill:#8c50ff;}.cls-5{fill:#b0b3c1;}.cls-6{fill:#fff;}.cls-7{fill:#b1b4c4;}.cls-8{fill:#a1a5b5;}.cls-9{fill:#3e7eff;}.cls-10,.cls-9{opacity:0.1;}.cls-11{opacity:0.3;}.cls-12{opacity:0.4;}.cls-13{fill:#b1b6c4;}.cls-14{fill:#c4c7d6;}.cls-15{fill:#38226d;}.cls-16{fill:#9c73ff;}.cls-17{fill:#ffcea9;}.cls-18{fill:#ededed;}.cls-19{fill:#e5e5e5;}.cls-20{fill:#f4f4f4;}.cls-21{fill:#bfbfbf;}.cls-22{fill:#3a2c6d;}.cls-23{fill:#dceeff;}.cls-24{fill:#dbdbdb;}.cls-25{fill:#1e3779;}.cls-26{fill:#031f60;}</style>
  </defs>
  <title
     id="title837">Search_SVG</title>
  <g
     data-name="Слой 2"
     id="Слой_2">
    <g
       data-name="Слой 1"
       id="Слой_1-2">
      <path
         id="path839"
         d="M388.86,204.44,119.34,48.84a3.44,3.44,0,0,0-3.16-.42h0l0,0-.27.16-2.94,1.7,1.69,2.39V233.94a10.44,10.44,0,0,0,4.72,8.18L388.53,397.54l.38,2.41,3.27-1.89h0a3.31,3.31,0,0,0,1.4-3.06V212.62A10.44,10.44,0,0,0,388.86,204.44Z"
         class="cls-1" />
      <path
         id="path841"
         d="M390.3,214.52V396.89c0,3-2.1,4.23-4.72,2.72L116.06,244a10.44,10.44,0,0,1-4.72-8.18V53.46c0-3,2.11-4.24,4.72-2.73L385.58,206.34A10.41,10.41,0,0,1,390.3,214.52Z"
         class="cls-2" />
      <polygon
         id="polygon843"
         points="287.46 178.09 121.97 82.54 121.97 73 287.46 168.55 287.46 178.09"
         class="cls-3" />
      <polygon
         id="polygon845"
         points="278.88 185 121.97 94.4 121.97 89.63 278.88 180.23 278.88 185"
         class="cls-3" />
      <polygon
         id="polygon847"
         points="260.62 183 121.97 102.94 121.97 98.17 260.62 178.23 260.62 183"
         class="cls-3" />
      <polygon
         id="polygon849"
         points="251.81 186.45 121.97 111.49 121.97 106.72 251.81 181.68 251.81 186.45"
         class="cls-3" />
      <polygon
         id="polygon851"
         points="379.21 302.03 318.4 266.92 318.4 257.38 379.21 292.48 379.21 302.03"
         class="cls-3" />
      <polygon
         id="polygon853"
         points="376.06 312.07 318.4 278.78 318.4 274.01 376.06 307.3 376.06 312.07"
         class="cls-3" />
      <polygon
         id="polygon855"
         points="369.35 316.74 318.4 287.32 318.4 282.55 369.35 311.97 369.35 316.74"
         class="cls-3" />
      <polygon
         id="polygon857"
         points="366.11 323.41 318.4 295.87 318.4 291.1 366.11 318.64 366.11 323.41"
         class="cls-3" />
      <polygon
         id="polygon859"
         points="287.46 229.81 121.97 134.26 121.97 124.72 287.46 220.27 287.46 229.81"
         class="cls-3" />
      <polygon
         id="polygon861"
         points="278.88 236.72 121.97 146.13 121.97 141.35 278.88 231.95 278.88 236.72"
         class="cls-3" />
      <polygon
         id="polygon863"
         points="260.62 234.72 121.97 154.67 121.97 149.9 260.62 229.95 260.62 234.72"
         class="cls-3" />
      <polygon
         id="polygon865"
         points="251.81 238.18 121.97 163.21 121.97 158.44 251.81 233.4 251.81 238.18"
         class="cls-3" />
      <polygon
         id="polygon867"
         points="287.46 281.54 121.97 185.99 121.97 176.44 287.46 272 287.46 281.54"
         class="cls-3" />
      <polygon
         id="polygon869"
         points="278.88 288.45 121.97 197.85 121.97 193.08 278.88 283.67 278.88 288.45"
         class="cls-3" />
      <polygon
         id="polygon871"
         points="260.62 286.45 121.97 206.39 121.97 201.62 260.62 281.67 260.62 286.45"
         class="cls-3" />
      <polygon
         id="polygon873"
         points="251.81 289.9 121.97 214.94 121.97 210.16 251.81 285.13 251.81 289.9"
         class="cls-3" />
      <polygon
         id="polygon875"
         points="287.46 333.26 121.97 237.71 121.97 228.17 287.46 323.72 287.46 333.26"
         class="cls-3" />
      <polygon
         id="polygon877"
         points="278.89 335.4 278.89 338.02 121.97 247.42 121.97 244.8 278.89 335.4"
         class="cls-3" />
      <path
         id="path879"
         d="M377.32,281.69l-57-32.92a4.55,4.55,0,0,1-1.89-3.61V188.93c0-1.39.85-2,1.89-1.43l57,32.92a4.55,4.55,0,0,1,1.89,3.61v56.23C379.21,281.65,378.36,282.29,377.32,281.69Z"
         class="cls-3" />
      <path
         id="path881"
         d="M388.86,156.17,119.34.56a3.11,3.11,0,0,0-3-.31h0l0,0-.06,0-3,1.68,1.32,2.14V33.64c0,3.47,2.12,7.51,4.73,9L388.28,197.94l.14,2.52,3.41-1.88.08-.05.1-.05h0c1-.59,1.57-1.91,1.57-3.77V165.2C393.58,161.72,391.46,157.68,388.86,156.17Z"
         class="cls-1" />
      <path
         id="path883"
         d="M385.58,200.09,116.06,44.48c-2.61-1.51-4.72-5.55-4.72-9V6c0-3.47,2.11-5.07,4.72-3.57L385.58,158c2.61,1.51,4.73,5.55,4.73,9v29.51C390.31,200,388.19,201.59,385.58,200.09Z"
         class="cls-2" />
      <path
         id="path885"
         d="M377.32,182.09,123.86,35.76A4.52,4.52,0,0,1,122,32.15V21.55c0-1.39.84-2,1.89-1.43L377.32,166.46a4.53,4.53,0,0,1,1.89,3.61v10.59C379.21,182.06,378.36,182.7,377.32,182.09Z"
         class="cls-3" />
      <path
         style="fill-opacity:1;stroke:none;stroke-opacity:1;fill-rule:nonzero;fill:#ff6600"
         id="path887"
         d="M377.79,182.37,361.4,172.9V157.27l16.39,9.46a4.53,4.53,0,0,1,1.89,3.61v10.6C379.68,182.33,378.83,183,377.79,182.37Z"
         class="cls-4" />
      <path
         id="path889"
         d="M130.47,31.53A8,8,0,0,1,129,29.9a2.83,2.83,0,0,1-.44-1.44q0-.8.54-1a1.71,1.71,0,0,1,1.43.3,4.35,4.35,0,0,1,1.79,2,2.94,2.94,0,0,1,.26,1.18l-.77-.45a2.19,2.19,0,0,0-.33-1.15,2.63,2.63,0,0,0-.95-.89,1.16,1.16,0,0,0-.88-.23c-.21.07-.32.28-.32.62a1.57,1.57,0,0,0,.3.87,5.75,5.75,0,0,0,1,1.11A10.72,10.72,0,0,1,131.82,32a4.29,4.29,0,0,1,.61,1,2.65,2.65,0,0,1,.19,1c0,.54-.18.87-.55,1a2,2,0,0,1-1.47-.36,5,5,0,0,1-1.12-.91,4.69,4.69,0,0,1-.8-1.19,3,3,0,0,1-.28-1.21l.77.45a2.08,2.08,0,0,0,.39,1.18,3.21,3.21,0,0,0,1,1,1.34,1.34,0,0,0,.93.25c.22-.07.32-.27.32-.6a1.63,1.63,0,0,0-.3-.93A6.87,6.87,0,0,0,130.47,31.53Z"
         class="cls-5" />
      <path
         id="path891"
         d="M135.28,37.39a3.88,3.88,0,0,1-1.43-1.49,4.3,4.3,0,0,1-.55-2.1v-.15a2.39,2.39,0,0,1,.25-1.19.94.94,0,0,1,.68-.51,1.41,1.41,0,0,1,1,.22,3.32,3.32,0,0,1,1.31,1.39,4.59,4.59,0,0,1,.47,2.11V36L134,34.33a3.15,3.15,0,0,0,.37,1.41,2.41,2.41,0,0,0,.91,1,1.14,1.14,0,0,0,.66.2.79.79,0,0,0,.48-.22l.45.67C136.55,37.8,136,37.81,135.28,37.39Zm-.09-4.52a.69.69,0,0,0-.75-.06,1.07,1.07,0,0,0-.37.84l2.16,1.25v-.07a2.65,2.65,0,0,0-.31-1.18A1.9,1.9,0,0,0,135.19,32.87Z"
         class="cls-5" />
      <path
         id="path893"
         d="M140.49,40.3a2.37,2.37,0,0,1-.11-.58,1.16,1.16,0,0,1-1.23-.09,3,3,0,0,1-1-1,2.33,2.33,0,0,1-.41-1.29c0-.52.17-.82.51-.91a2.07,2.07,0,0,1,1.44.4l.72.41v-.39a1.66,1.66,0,0,0-.23-.84,1.8,1.8,0,0,0-.68-.66.91.91,0,0,0-.67-.15.37.37,0,0,0-.26.4l-.75-.43a.79.79,0,0,1,.23-.59.81.81,0,0,1,.63-.19,2.07,2.07,0,0,1,.86.3,3.18,3.18,0,0,1,1.17,1.1,2.79,2.79,0,0,1,.44,1.44v2.3a4.08,4.08,0,0,0,.15,1.18v.07ZM139.26,39a1.13,1.13,0,0,0,.66.17.53.53,0,0,0,.45-.28v-1l-.58-.34c-.9-.52-1.35-.47-1.35.14a1.35,1.35,0,0,0,.23.76A1.69,1.69,0,0,0,139.26,39Z"
         class="cls-5" />
      <path
         id="path895"
         d="M144.35,38.32a3.27,3.27,0,0,0-.36-.25q-.72-.42-1,.15v3.54l-.73-.43v-5l.71.41,0,.58c.24-.3.58-.33,1-.07a1.27,1.27,0,0,1,.32.25Z"
         class="cls-5" />
      <path
         id="path897"
         d="M146.69,43.28a.82.82,0,0,0,.69.12.52.52,0,0,0,.33-.5l.69.4a1,1,0,0,1-.25.67.87.87,0,0,1-.63.26,1.65,1.65,0,0,1-.83-.25,3.6,3.6,0,0,1-1.4-1.49,4.54,4.54,0,0,1-.53-2.16v-.15A2.41,2.41,0,0,1,145,39a.85.85,0,0,1,.66-.49,1.6,1.6,0,0,1,1,.27,3.39,3.39,0,0,1,1.21,1.2,3.27,3.27,0,0,1,.51,1.6l-.69-.4a2.31,2.31,0,0,0-.32-1,2.13,2.13,0,0,0-.71-.72q-.56-.31-.87,0a1.64,1.64,0,0,0-.31,1.17v.16a3.54,3.54,0,0,0,.31,1.51A2.19,2.19,0,0,0,146.69,43.28Z"
         class="cls-5" />
      <path
         id="path899"
         d="M150,41.4a1,1,0,0,1,1.28,0A2.79,2.79,0,0,1,152.63,44v3.3l-.74-.43v-3.3a1.87,1.87,0,0,0-.21-.92A1.81,1.81,0,0,0,151,42a.93.93,0,0,0-.63-.14.64.64,0,0,0-.43.34v3.55l-.74-.43V38.28l.74.42Z"
         class="cls-5" />
      <path
         id="path901"
         d="M153.75,47.52a.36.36,0,0,1,.12-.31c.07-.05.19,0,.34,0a1,1,0,0,1,.34.35.88.88,0,0,1,.12.44.3.3,0,0,1-.12.28c-.08.05-.19,0-.34,0a.85.85,0,0,1-.34-.34A.84.84,0,0,1,153.75,47.52Z"
         class="cls-5" />
      <path
         id="path903"
         d="M155.9,48.76a.33.33,0,0,1,.12-.3c.07-.06.19,0,.34,0a.95.95,0,0,1,.46.79.3.3,0,0,1-.12.28c-.07,0-.19,0-.34,0a.85.85,0,0,1-.34-.34A.84.84,0,0,1,155.9,48.76Z"
         class="cls-5" />
      <path
         id="path905"
         d="M158.05,50a.33.33,0,0,1,.12-.3c.07-.06.19,0,.34,0a.8.8,0,0,1,.34.34.91.91,0,0,1,.12.44.32.32,0,0,1-.12.29c-.07,0-.19,0-.34-.06a.85.85,0,0,1-.34-.34A.84.84,0,0,1,158.05,50Z"
         class="cls-5" />
      <g
         id="Search">
        <path
           id="path907"
           d="M374.19,175.76l-1.6-2.75a2.57,2.57,0,0,0,.72-2,7.42,7.42,0,0,0-3.35-5.81c-1.86-1.07-3.36-.2-3.36,1.94A7.4,7.4,0,0,0,370,173a2.61,2.61,0,0,0,1.94.4l1.61,2.79c.19.32.49.5.68.39S374.37,176.09,374.19,175.76Zm-2.37-3.64a.28.28,0,0,0-.18,0,.27.27,0,0,0-.1.13A1.91,1.91,0,0,1,370,172a5.56,5.56,0,0,1-2.52-4.36c0-1.61,1.13-2.26,2.52-1.45a5.55,5.55,0,0,1,2.51,4.36A1.83,1.83,0,0,1,371.82,172.12Z"
           class="cls-6" />
      </g>
      <path
         id="path910"
         d="M338.43,219.64c-16.2-27.3-43.47-41-60.91-30.69l-15.16,8.71,5.81,9.67a22.31,22.31,0,0,1,3.3-4.09c14.74-4.78,35,6.63,47.5,27.64s12.76,44.29,1.51,54.94a21.59,21.59,0,0,1-4.55.91l5.67,9.42,14.57-8.35C353.61,277.45,354.62,246.93,338.43,219.64Z"
         class="cls-1" />
      <path
         id="path912"
         d="M323.85,228c-16.2-27.3-43.47-41-60.91-30.69s-18.45,40.87-2.25,68.17,43.47,41,60.91,30.68S340.05,255.28,323.85,228Zm-3.37,57.83c-14.75,4.78-35-6.63-47.5-27.65s-12.76-44.28-1.51-54.93c14.74-4.78,35,6.63,47.5,27.64S331.73,275.17,320.48,285.82Z"
         class="cls-7" />
      <path
         id="path914"
         d="M273,258.17c-12.47-21-12.76-44.28-1.51-54.93,6.43-2.09,13.92-1.09,21.35,2.44-9.12-4.34-18.31-4.91-25.54-.62-14.85,8.81-15.79,34.67-2.1,57.74s36.84,34.64,51.69,25.83a20.2,20.2,0,0,0,3.61-2.81C305.73,290.6,285.45,279.19,273,258.17Z"
         class="cls-8" />
      <path
         id="path916"
         d="M319,230.88c-12.47-21-32.76-32.42-47.5-27.64-11.25,10.65-11,33.92,1.51,54.93s32.75,32.43,47.5,27.65C331.73,275.17,331.44,251.9,319,230.88Z"
         class="cls-9" />
      <polygon
         id="polygon918"
         points="339.29 264.71 371.98 283.56 371.98 291.98 339.29 273.13 339.29 264.71"
         class="cls-7" />
      <polygon
         id="polygon920"
         points="346.58 260.5 379.27 279.35 371.98 283.56 339.29 264.71 346.58 260.5"
         class="cls-1" />
      <path
         style="fill-opacity:1;stroke:none;stroke-opacity:1;fill-rule:nonzero;fill:#ff6600"
         id="path922"
         d="M365.05,278.8c3.09-5.22,8.3-7.84,11.63-5.86l59.38,34.52-11.31,18.8-59.27-34.45C362.15,289.83,362,284,365.05,278.8Z"
         class="cls-4" />
      <path
         style="fill:#d45500"
         id="path924"
         d="M436.38,320.4c-3.1,5.21-8.3,7.84-11.63,5.86s-3.53-7.8-.43-13,8.3-7.84,11.63-5.86S439.47,315.19,436.38,320.4Z"
         class="cls-4" />
      <path
         id="path928"
         d="M367.22,427.72,126.3,284c-1.16-.66-1-1.83.32-2.6h0a5,5,0,0,1,4.5-.18L372,424.94c1.16.67,1,1.83-.32,2.6h0A5,5,0,0,1,367.22,427.72Z"
         class="cls-11" />
      <polygon
         id="polygon930"
         points="37.5 500 0 478.55 56.13 446.42 93.63 467.87 37.5 500"
         class="cls-12" />
      <polygon
         id="polygon932"
         points="38.28 456.75 7.22 438.81 38.28 420.88 69.34 438.81 38.28 456.75"
         class="cls-1" />
      <polygon
         id="polygon934"
         points="38.28 492.61 7.22 474.68 7.22 438.81 38.28 456.75 38.28 492.61"
         class="cls-13" />
      <polygon
         id="polygon936"
         points="69.34 474.68 38.28 492.61 38.28 456.75 69.34 438.81 69.34 474.68"
         class="cls-14" />
      <g
         id="Men_5">
        <path
           id="path938"
           d="M80,463.39a10.57,10.57,0,0,0,8-1c1.93.06,12.39-4.42,13.81-.66,1.25,3.3-3.28,6.35-5.7,6.93-5.29,1.28-9.2,3.92-11.32,4.36-1.58.34-3.63.56-4.89-.69C78.41,470.87,78.54,465.36,80,463.39Z"
           class="cls-15" />
        <path
           id="path940"
           d="M84.81,472.14c2.12-.45,6-3.08,11.32-4.36,2-.49,5.52-2.71,5.87-5.36.47,3-3.62,5.73-5.87,6.27-5.29,1.28-9.2,3.92-11.32,4.36-1.58.34-3.63.56-4.89-.69a3,3,0,0,1-.69-1.26A6.33,6.33,0,0,0,84.81,472.14Z"
           class="cls-16" />
        <path
           id="path942"
           d="M61.16,453.35a10.63,10.63,0,0,0,8-1c1.93.06,12.38-4.42,13.81-.66,1.24,3.3-3.29,6.34-5.71,6.93C72,459.93,68.07,462.57,66,463c-1.58.34-3.63.55-4.89-.69C59.55,460.83,59.68,455.31,61.16,453.35Z"
           class="cls-15" />
        <path
           id="path944"
           d="M66,462.1c2.12-.45,6-3.08,11.31-4.36,2-.49,5.53-2.71,5.88-5.36.47,3-3.62,5.72-5.88,6.27C72,459.93,68.07,462.57,66,463c-1.58.34-3.63.55-4.89-.69a3.14,3.14,0,0,1-.69-1.26A6.33,6.33,0,0,0,66,462.1Z"
           class="cls-16" />
        <path
           style="fill-opacity:1;stroke:none;stroke-opacity:1;fill-rule:nonzero;fill:#ff6600"
           id="path946"
           d="M31.79,440.33c8.16,3.58,15.85,4.15,22.14.77l6.5-3.75c.39,8.39.76,16.45.76,16.45s5,3.77,8.86.41c0,0,.81-11.78,1.63-23.36l6.82-3.93a8.41,8.41,0,0,0-.26,1.89c.05,2.2,1.58,34.91,1.58,34.91s5,3,8.9-.38c0,0,2.61-37.9,3.21-43.95.68-6.81-6.88-10.17-11.67-8.42-1.11.4-3.85,1.42-7.31,2.71.15-1.89.27-3.37.36-4.21.67-6.81-6.89-10.16-11.67-8.42-4.36,1.59-33.79,12.63-33.79,12.63a75,75,0,0,0,1,8.43l-11.63-1C16.56,432.06,23.64,436.74,31.79,440.33Zm20.3-18.84L59.87,417a10.43,10.43,0,0,0-.25,1.67Z"
           class="cls-4" />
        <path
           id="path948"
           d="M10.88,388s1,14.46,2.86,16.54S22.05,408,22.05,408L27,416.14s-4.51-25.86-5.49-26.48S10.88,388,10.88,388Z"
           class="cls-17" />
        <path
           d="M20.39,371.9A5.39,5.39,0,0,0,13.51,374c-1.82,3-3.71,13.34-3.88,15.11,0,0,2.55,3.52,6.38,2.93Z"
           class="cls-18"
           data-name="&lt;Контур&gt;"
           id="_Контур_" />
        <path
           d="M22.13,372.08c2.5.12,4.36.76,4.67,0a33.41,33.41,0,0,0,.57-3.91c-.29-.73-.54-1.51-.54-1.51-3.14-1.93-4.13-5.32-4.54-9.27-.7-6.75,2.94-12.66,9.7-13.37,6.34-.66,11,3.8,12.26,9.93.67,3,2,8.74.2,13.71-1,2.78-2.31,5-3.61,5.42a33.28,33.28,0,0,1-3.76-.33h0s-.34,1.88-.57,3.08-.14,1.84,2.25,3.32-3.62,4.51-7.55,4.21-8.36-2.67-9.57-5.21C20.29,375.34,20.41,372,22.13,372.08Z"
           class="cls-17"
           data-name="&lt;Контур&gt;"
           id="_Контур_2" />
        <g
           data-name="&lt;Группа&gt;"
           id="_Группа_">
          <g
             data-name="&lt;Группа&gt;"
             id="_Группа_2">
            <g
               data-name="&lt;Группа&gt;"
               id="_Группа_3">
              <path
                 d="M85.45,416.32h0a2,2,0,0,1-1,1.76l-19.06,11a2,2,0,0,1-2,0L36.64,413.66a2,2,0,0,1-1-1.76v-.15Z"
                 class="cls-19"
                 data-name="&lt;Контур&gt;"
                 id="_Контур_3" />
              <path
                 d="M84.44,418.08l-19.06,11a2,2,0,0,1-1,.27v-13H85.45A2,2,0,0,1,84.44,418.08Z"
                 class="cls-19"
                 data-name="&lt;Контур&gt;"
                 id="_Контур_4" />
              <g
                 data-name="&lt;Группа&gt;"
                 id="_Группа_4">
                <path
                   d="M65.08,428.08a1.46,1.46,0,0,1-1.43,0l-27.76-16c-.35-.21-.35-.54,0-.74L56.34,399.5l29.11,16.82Z"
                   class="cls-20"
                   data-name="&lt;Контур&gt;"
                   id="_Контур_5" />
              </g>
              <g
                 data-name="&lt;Группа&gt;"
                 id="_Группа_5">
                <polygon
                   points="47.3 416.32 47.44 416.4 56.33 421.53 61.22 418.71 61.35 418.63 52.32 413.42 47.3 416.32"
                   class="cls-21"
                   data-name="&lt;Контур&gt;"
                   id="_Контур_6" />
                <polygon
                   points="47.44 416.4 56.33 421.53 61.22 418.71 52.32 413.58 47.44 416.4"
                   class="cls-19"
                   data-name="&lt;Контур&gt;"
                   id="_Контур_7" />
              </g>
              <path
                 id="path959"
                 d="M77.9,417.15l1.29.74a.46.46,0,0,0,.41,0l1.22-.71c.12-.07.13-.17,0-.23l-1.28-.74a.46.46,0,0,0-.41,0l-1.23.71C77.81,417,77.8,417.09,77.9,417.15Z"
                 class="cls-22" />
              <path
                 id="path961"
                 d="M76.09,416.1l1.28.74a.46.46,0,0,0,.41,0l1.22-.71c.13-.07.14-.17,0-.23l-1.28-.74a.46.46,0,0,0-.41,0l-1.22.7C76,415.93,76,416,76.09,416.1Z"
                 class="cls-22" />
              <path
                 id="path963"
                 d="M74.27,415.05l1.29.74a.44.44,0,0,0,.4,0l1.23-.7c.12-.07.13-.18,0-.24l-1.29-.74a.44.44,0,0,0-.4,0l-1.23.7C74.18,414.88,74.17,415,74.27,415.05Z"
                 class="cls-22" />
              <path
                 id="path965"
                 d="M72.46,414l1.28.74a.46.46,0,0,0,.41,0l1.22-.7c.12-.07.14-.18,0-.24L74.12,413a.46.46,0,0,0-.41,0l-1.22.7C72.36,413.83,72.35,413.94,72.46,414Z"
                 class="cls-22" />
              <path
                 id="path967"
                 d="M70.64,413l1.28.74a.46.46,0,0,0,.41,0l1.23-.71c.12-.07.13-.18,0-.24L72.3,412a.46.46,0,0,0-.41,0l-1.22.71C70.55,412.79,70.53,412.89,70.64,413Z"
                 class="cls-22" />
              <path
                 id="path969"
                 d="M68.82,411.9l1.29.74a.44.44,0,0,0,.4,0l1.23-.71c.12-.07.13-.18,0-.24l-1.28-.74a.46.46,0,0,0-.41,0l-1.23.71C68.73,411.74,68.72,411.84,68.82,411.9Z"
                 class="cls-22" />
              <path
                 id="path971"
                 d="M67,410.85l1.28.75a.46.46,0,0,0,.41,0l1.22-.71c.12-.07.14-.17,0-.23l-1.28-.75a.46.46,0,0,0-.41,0l-1.22.71C66.92,410.69,66.9,410.79,67,410.85Z"
                 class="cls-22" />
              <path
                 id="path973"
                 d="M65.19,409.81l1.28.74a.46.46,0,0,0,.41,0l1.23-.71c.12-.07.13-.17,0-.23l-1.29-.74a.46.46,0,0,0-.41,0l-1.22.71C65.1,409.64,65.09,409.75,65.19,409.81Z"
                 class="cls-22" />
              <path
                 id="path975"
                 d="M63.37,408.76l1.29.74a.46.46,0,0,0,.41,0l1.22-.71c.12-.07.13-.17,0-.23L65,407.8a.46.46,0,0,0-.41,0l-1.23.71C63.28,408.59,63.27,408.7,63.37,408.76Z"
                 class="cls-22" />
              <path
                 id="path977"
                 d="M61.56,407.71l1.28.74a.46.46,0,0,0,.41,0l1.22-.7c.12-.07.14-.18,0-.24l-1.28-.74a.46.46,0,0,0-.41,0l-1.22.7C61.47,407.54,61.45,407.65,61.56,407.71Z"
                 class="cls-22" />
              <path
                 id="path979"
                 d="M59.74,406.66l1.28.74a.46.46,0,0,0,.41,0l1.23-.7c.12-.07.13-.18,0-.24l-1.29-.74a.44.44,0,0,0-.4,0l-1.23.7C59.65,406.49,59.64,406.6,59.74,406.66Z"
                 class="cls-22" />
              <path
                 id="path981"
                 d="M57.93,405.61l1.28.74a.49.49,0,0,0,.41,0l1.22-.71c.12-.07.14-.18,0-.24l-1.28-.74a.46.46,0,0,0-.41,0l-1.23.71C57.83,405.45,57.82,405.55,57.93,405.61Z"
                 class="cls-22" />
              <path
                 id="path983"
                 d="M56.11,404.56l1.28.74a.46.46,0,0,0,.41,0l1.23-.71c.12-.07.13-.18,0-.24l-1.28-.74a.46.46,0,0,0-.41,0l-1.22.71C56,404.4,56,404.5,56.11,404.56Z"
                 class="cls-22" />
              <path
                 id="path985"
                 d="M53.42,403l2.16,1.24a.41.41,0,0,0,.4,0l1.23-.71c.12-.07.13-.17,0-.23l-2.16-1.25a.46.46,0,0,0-.41,0l-1.22.7C53.33,402.84,53.31,403,53.42,403Z"
                 class="cls-22" />
              <path
                 id="path987"
                 d="M73.45,416.61l1.28.74a.46.46,0,0,0,.41,0l1.23-.71c.12-.07.13-.17,0-.23l-1.29-.74a.46.46,0,0,0-.41,0l-1.22.71C73.36,416.44,73.35,416.55,73.45,416.61Z"
                 class="cls-22" />
              <path
                 id="path989"
                 d="M71.63,415.56l1.28.74a.46.46,0,0,0,.41,0l1.23-.71c.12-.07.13-.17,0-.23l-1.29-.74a.46.46,0,0,0-.41,0l-1.22.71C71.54,415.39,71.53,415.5,71.63,415.56Z"
                 class="cls-22" />
              <path
                 id="path991"
                 d="M69.81,414.51l1.28.74a.46.46,0,0,0,.41,0l1.23-.71c.12-.07.13-.17,0-.23l-1.29-.74a.46.46,0,0,0-.41,0l-1.22.71C69.72,414.34,69.71,414.45,69.81,414.51Z"
                 class="cls-22" />
              <path
                 id="path993"
                 d="M68,413.46l1.28.74a.46.46,0,0,0,.41,0l1.23-.71c.12-.07.13-.17,0-.23l-1.29-.74a.44.44,0,0,0-.4,0l-1.23.71C67.9,413.29,67.89,413.4,68,413.46Z"
                 class="cls-22" />
              <path
                 id="path995"
                 d="M66.19,412.41l1.28.74a.43.43,0,0,0,.41,0l1.22-.71c.12-.07.14-.17,0-.23l-1.28-.75a.46.46,0,0,0-.41,0l-1.22.71C66.1,412.25,66.08,412.35,66.19,412.41Z"
                 class="cls-22" />
              <path
                 id="path997"
                 d="M64.37,411.36l1.28.74a.46.46,0,0,0,.41,0l1.22-.71c.12-.07.14-.17,0-.24L66,410.4a.46.46,0,0,0-.41,0l-1.22.71C64.28,411.2,64.26,411.3,64.37,411.36Z"
                 class="cls-22" />
              <path
                 id="path999"
                 d="M62.55,410.31l1.28.74a.46.46,0,0,0,.41,0l1.22-.71c.12-.07.14-.18,0-.24l-1.28-.74a.46.46,0,0,0-.41,0l-1.22.71C62.46,410.15,62.44,410.25,62.55,410.31Z"
                 class="cls-22" />
              <path
                 id="path1001"
                 d="M60.73,409.26,62,410a.46.46,0,0,0,.41,0l1.22-.71c.13-.07.14-.18,0-.24l-1.28-.74a.46.46,0,0,0-.41,0l-1.22.71C60.64,409.1,60.62,409.2,60.73,409.26Z"
                 class="cls-22" />
              <path
                 id="path1003"
                 d="M58.91,408.21l1.28.74a.46.46,0,0,0,.41,0l1.23-.71c.12-.07.13-.18,0-.24l-1.28-.74a.46.46,0,0,0-.41,0l-1.22.71C58.82,408.05,58.8,408.15,58.91,408.21Z"
                 class="cls-22" />
              <path
                 id="path1005"
                 d="M57.09,407.16l1.28.74a.46.46,0,0,0,.41,0l1.23-.71c.12-.07.13-.18,0-.24l-1.29-.74a.46.46,0,0,0-.41,0l-1.22.71C57,407,57,407.1,57.09,407.16Z"
                 class="cls-22" />
              <path
                 id="path1007"
                 d="M55.27,406.11l1.28.74a.46.46,0,0,0,.41,0l1.23-.7c.12-.07.13-.18,0-.24l-1.29-.74a.46.46,0,0,0-.41,0l-1.22.71C55.18,406,55.17,406.05,55.27,406.11Z"
                 class="cls-22" />
              <path
                 id="path1009"
                 d="M53.45,405.06l1.28.74a.46.46,0,0,0,.41,0l1.23-.7c.12-.07.13-.18,0-.24l-1.29-.74a.46.46,0,0,0-.41,0l-1.22.7C53.36,404.89,53.35,405,53.45,405.06Z"
                 class="cls-22" />
              <path
                 id="path1011"
                 d="M75.27,417.66l2.16,1.24a.46.46,0,0,0,.41,0l1.22-.71c.12-.07.13-.18,0-.24l-2.16-1.24a.49.49,0,0,0-.41,0l-1.22.71C75.18,417.49,75.16,417.6,75.27,417.66Z"
                 class="cls-22" />
              <path
                 id="path1013"
                 d="M53.3,403.06l1.28.74c.11.06.11.16,0,.22l-1.29.75a.42.42,0,0,1-.38,0l-.1-.06a.38.38,0,0,0-.36,0l-1.36.79a.42.42,0,0,1-.38,0l-.82-.47a.12.12,0,0,1,0-.22l1.28-.74.27-.15.19-.11.19-.11,1.1-.64A.42.42,0,0,1,53.3,403.06Z"
                 class="cls-22" />
              <path
                 id="path1015"
                 d="M70.86,421.21l1.28.74a.46.46,0,0,0,.41,0l1.22-.71c.12-.07.14-.17,0-.23l-1.28-.74a.46.46,0,0,0-.41,0l-1.22.7C70.76,421,70.75,421.15,70.86,421.21Z"
                 class="cls-22" />
              <path
                 id="path1017"
                 d="M69,420.16l1.29.74a.46.46,0,0,0,.41,0l1.22-.71c.12-.07.13-.18,0-.24l-1.28-.74a.46.46,0,0,0-.41,0l-1.23.71C69,420,68.94,420.1,69,420.16Z"
                 class="cls-22" />
              <path
                 id="path1019"
                 d="M67.23,419.12l1.29.74a.44.44,0,0,0,.4,0l1.23-.71c.12-.07.13-.17,0-.23l-1.28-.74a.46.46,0,0,0-.41,0l-1.23.71C67.14,419,67.13,419.06,67.23,419.12Z"
                 class="cls-22" />
              <path
                 id="path1021"
                 d="M51.81,410.21l1.28.74a.46.46,0,0,0,.41,0l1.23-.71c.12-.07.13-.18,0-.24l-1.28-.74a.46.46,0,0,0-.41,0l-1.22.71C51.72,410.05,51.71,410.15,51.81,410.21Z"
                 class="cls-22" />
              <path
                 id="path1023"
                 d="M50,409.17l1.28.74a.46.46,0,0,0,.41,0l1.22-.71c.13-.07.14-.17,0-.23l-1.28-.74a.46.46,0,0,0-.41,0l-1.22.71C49.91,409,49.89,409.11,50,409.17Z"
                 class="cls-22" />
              <path
                 id="path1025"
                 d="M48.19,408.12l1.28.74a.46.46,0,0,0,.41,0l1.22-.7c.12-.07.14-.18,0-.24l-1.28-.74a.46.46,0,0,0-.41,0l-1.22.7C48.1,408,48.08,408.06,48.19,408.12Z"
                 class="cls-22" />
              <path
                 id="path1027"
                 d="M46.38,407.07l1.28.75a.46.46,0,0,0,.41,0l1.22-.71c.12-.07.14-.17,0-.23L48,406.11a.46.46,0,0,0-.41,0l-1.22.71C46.28,406.91,46.27,407,46.38,407.07Z"
                 class="cls-22" />
              <path
                 id="path1029"
                 d="M65,417.8l1.75,1a.44.44,0,0,0,.4,0l1.23-.7c.12-.07.13-.18,0-.24l-1.75-1a.46.46,0,0,0-.41,0l-1.22.71C64.86,417.64,64.85,417.74,65,417.8Z"
                 class="cls-22" />
              <path
                 id="path1031"
                 d="M53.62,411.26l1.75,1a.46.46,0,0,0,.41,0l1.22-.71c.12-.07.14-.17,0-.23l-1.75-1a.46.46,0,0,0-.41,0l-1.22.71C53.53,411.09,53.52,411.2,53.62,411.26Z"
                 class="cls-22" />
              <path
                 id="path1033"
                 d="M55.9,412.57l8.53,4.93a.46.46,0,0,0,.41,0l1.22-.71c.12-.07.13-.17,0-.23l-8.53-4.93a.46.46,0,0,0-.41,0l-1.22.71C55.81,412.41,55.79,412.51,55.9,412.57Z"
                 class="cls-22" />
              <path
                 id="path1035"
                 d="M71.2,417.34l1.28.74a.46.46,0,0,0,.41,0l1.22-.7c.12-.07.14-.18,0-.24l-1.28-.74a.46.46,0,0,0-.41,0l-1.23.7C71.1,417.17,71.09,417.28,71.2,417.34Z"
                 class="cls-22" />
              <path
                 id="path1037"
                 d="M69.38,416.29l1.28.74a.46.46,0,0,0,.41,0l1.23-.7c.12-.07.13-.18,0-.24L71,415.33a.46.46,0,0,0-.41,0l-1.22.71C69.29,416.12,69.28,416.23,69.38,416.29Z"
                 class="cls-22" />
              <path
                 id="path1039"
                 d="M67.57,415.24l1.28.74a.46.46,0,0,0,.41,0l1.22-.71c.12-.07.14-.18,0-.24l-1.28-.74a.46.46,0,0,0-.41,0L67.6,415C67.48,415.08,67.46,415.18,67.57,415.24Z"
                 class="cls-22" />
              <path
                 id="path1041"
                 d="M65.75,414.2l1.29.74a.44.44,0,0,0,.4,0l1.23-.71c.12-.07.13-.17,0-.23l-1.29-.74a.44.44,0,0,0-.4,0l-1.23.71C65.66,414,65.65,414.14,65.75,414.2Z"
                 class="cls-22" />
              <path
                 id="path1043"
                 d="M63.94,413.15l1.28.74a.46.46,0,0,0,.41,0l1.22-.7c.13-.07.14-.18,0-.24l-1.28-.74a.46.46,0,0,0-.41,0l-1.22.7C63.85,413,63.83,413.09,63.94,413.15Z"
                 class="cls-22" />
              <path
                 id="path1045"
                 d="M62.12,412.1l1.29.74a.46.46,0,0,0,.41,0l1.22-.7c.12-.07.13-.18,0-.24l-1.28-.74a.46.46,0,0,0-.41,0l-1.23.71C62,411.93,62,412,62.12,412.1Z"
                 class="cls-22" />
              <path
                 id="path1047"
                 d="M60.31,411.05l1.28.74a.46.46,0,0,0,.41,0l1.23-.71c.12-.07.13-.17,0-.24L62,410.09a.46.46,0,0,0-.41,0l-1.22.71C60.22,410.89,60.21,411,60.31,411.05Z"
                 class="cls-22" />
              <path
                 id="path1049"
                 d="M58.5,410l1.28.74a.46.46,0,0,0,.41,0l1.22-.71c.12-.07.14-.17,0-.23l-1.28-.74a.46.46,0,0,0-.41,0l-1.22.71C58.4,409.84,58.39,410,58.5,410Z"
                 class="cls-22" />
              <path
                 id="path1051"
                 d="M56.68,409l1.28.74a.46.46,0,0,0,.41,0l1.23-.7c.12-.07.13-.18,0-.24L58.34,408a.44.44,0,0,0-.4,0l-1.23.7C56.59,408.79,56.58,408.9,56.68,409Z"
                 class="cls-22" />
              <path
                 id="path1053"
                 d="M54.87,407.91l1.28.74a.46.46,0,0,0,.41,0l1.22-.7c.12-.07.14-.18,0-.24L56.53,407a.46.46,0,0,0-.41,0l-1.22.71C54.78,407.75,54.76,407.85,54.87,407.91Z"
                 class="cls-22" />
              <path
                 id="path1055"
                 d="M53.05,406.86l1.29.74a.44.44,0,0,0,.4,0l1.23-.71c.12-.07.13-.17,0-.24l-1.28-.74a.46.46,0,0,0-.41,0l-1.23.71C53,406.7,53,406.8,53.05,406.86Z"
                 class="cls-22" />
              <path
                 id="path1057"
                 d="M51.24,405.82l1.28.74a.46.46,0,0,0,.41,0l1.22-.71c.13-.07.14-.17,0-.23l-1.28-.74a.46.46,0,0,0-.41,0l-1.22.71C51.15,405.65,51.13,405.76,51.24,405.82Z"
                 class="cls-22" />
              <path
                 id="path1059"
                 d="M73,418.39l2.65,1.53a.46.46,0,0,0,.41,0l1.23-.71c.12-.07.13-.17,0-.23l-2.66-1.53a.46.46,0,0,0-.41,0l-1.22.71C72.92,418.22,72.91,418.33,73,418.39Z"
                 class="cls-22" />
              <path
                 id="path1061"
                 d="M70.34,418.87l1.28.75a.46.46,0,0,0,.41,0l1.22-.71c.12-.07.14-.17,0-.23L72,417.92a.43.43,0,0,0-.41,0l-1.22.71C70.24,418.71,70.23,418.81,70.34,418.87Z"
                 class="cls-22" />
              <path
                 id="path1063"
                 d="M68.52,417.83l1.28.74a.46.46,0,0,0,.41,0l1.23-.71c.12-.07.13-.17,0-.23l-1.29-.74a.44.44,0,0,0-.4,0l-1.23.71C68.43,417.66,68.42,417.77,68.52,417.83Z"
                 class="cls-22" />
              <path
                 id="path1065"
                 d="M66.71,416.78l1.28.74a.46.46,0,0,0,.41,0l1.22-.7c.12-.07.14-.18,0-.24l-1.28-.74a.46.46,0,0,0-.41,0l-1.22.7C66.62,416.61,66.6,416.72,66.71,416.78Z"
                 class="cls-22" />
              <path
                 id="path1067"
                 d="M64.89,415.73l1.29.74a.46.46,0,0,0,.41,0l1.22-.71c.12-.07.13-.18,0-.24l-1.28-.74a.46.46,0,0,0-.41,0l-1.23.71C64.8,415.57,64.79,415.67,64.89,415.73Z"
                 class="cls-22" />
              <path
                 id="path1069"
                 d="M63.08,414.69l1.28.74a.46.46,0,0,0,.41,0L66,414.7c.12-.07.13-.17,0-.23l-1.28-.74a.46.46,0,0,0-.41,0l-1.22.71C63,414.52,63,414.63,63.08,414.69Z"
                 class="cls-22" />
              <path
                 id="path1071"
                 d="M61.27,413.64l1.28.74a.46.46,0,0,0,.41,0l1.22-.7c.12-.07.14-.18,0-.24l-1.28-.74a.46.46,0,0,0-.41,0l-1.22.7C61.17,413.47,61.16,413.58,61.27,413.64Z"
                 class="cls-22" />
              <path
                 id="path1073"
                 d="M59.45,412.59l1.28.74a.46.46,0,0,0,.41,0l1.23-.7c.12-.07.13-.18,0-.24l-1.29-.74a.44.44,0,0,0-.4,0l-1.23.71C59.36,412.42,59.35,412.53,59.45,412.59Z"
                 class="cls-22" />
              <path
                 id="path1075"
                 d="M57.64,411.54l1.28.74a.46.46,0,0,0,.41,0l1.22-.71c.12-.07.14-.17,0-.24l-1.28-.74a.46.46,0,0,0-.41,0l-1.22.71C57.55,411.38,57.53,411.48,57.64,411.54Z"
                 class="cls-22" />
              <path
                 id="path1077"
                 d="M55.82,410.5l1.29.74a.46.46,0,0,0,.41,0l1.22-.71c.12-.07.13-.17,0-.23l-1.28-.74a.46.46,0,0,0-.41,0l-1.23.71C55.73,410.33,55.72,410.44,55.82,410.5Z"
                 class="cls-22" />
              <path
                 id="path1079"
                 d="M54,409.45l1.28.74a.46.46,0,0,0,.41,0l1.23-.7c.12-.07.13-.18,0-.24l-1.29-.74a.46.46,0,0,0-.41,0l-1.22.7C53.92,409.28,53.91,409.39,54,409.45Z"
                 class="cls-22" />
              <path
                 id="path1081"
                 d="M52.2,408.4l1.28.74a.46.46,0,0,0,.41,0l1.22-.71c.12-.07.14-.18,0-.24l-1.28-.74a.46.46,0,0,0-.41,0l-1.22.71C52.1,408.24,52.09,408.34,52.2,408.4Z"
                 class="cls-22" />
              <path
                 id="path1083"
                 d="M48.14,406.06l3.53,2a.44.44,0,0,0,.4,0l1.23-.71c.12-.07.13-.17,0-.23l-3.53-2a.46.46,0,0,0-.41,0l-1.22.7C48.05,405.89,48,406,48.14,406.06Z"
                 class="cls-22" />
              <path
                 id="path1085"
                 d="M72.15,419.92l1.75,1a.49.49,0,0,0,.41,0l1.22-.71c.12-.07.14-.18,0-.24l-1.75-1a.46.46,0,0,0-.41,0l-1.22.71C72.06,419.76,72,419.86,72.15,419.92Z"
                 class="cls-22" />
            </g>
            <g
               data-name="&lt;Группа&gt;"
               id="_Группа_6">
              <g
                 data-name="&lt;Группа&gt;"
                 id="_Группа_7">
                <g
                   data-name="&lt;Группа&gt;"
                   id="_Группа_8">
                  <path
                     d="M85.45,416.32h0L56.34,399.5V376.61l.22-.52.24-.12h0a2,2,0,0,1,2,0l26.64,15.39a2,2,0,0,1,1,1.74v21.48C86.27,415.69,86.07,416,85.45,416.32Z"
                     class="cls-19"
                     data-name="&lt;Контур&gt;"
                     id="_Контур_8" />
                  <path
                     d="M82.78,394.13,56.34,377.37v-.76l.22-.52.24-.12a2,2,0,0,1,2,0l26.64,15.39a2.08,2.08,0,0,1,.77.79Z"
                     class="cls-19"
                     data-name="&lt;Контур&gt;"
                     id="_Контур_9" />
                  <path
                     d="M57,376.09,85,392.23a1,1,0,0,1,.49.85v23.24L56.34,399.5v-23A.45.45,0,0,1,57,376.09Z"
                     class="cls-23"
                     data-name="&lt;Контур&gt;"
                     id="_Контур_10" />
                  <path
                     d="M57,376.09,85,392.23a1,1,0,0,1,.49.85v23.24L56.34,399.5v-23A.45.45,0,0,1,57,376.09Z"
                     class="cls-20"
                     data-name="&lt;Контур&gt;"
                     id="_Контур_11" />
                  <polygon
                     points="85.45 416.31 85.45 415.49 56.34 398.67 56.34 399.5 85.45 416.31"
                     class="cls-24"
                     data-name="&lt;Контур&gt;"
                     id="_Контур_12" />
                </g>
                <polygon
                   points="57.09 398.28 57.09 377.29 57.45 377.5 57.45 398.11 57.09 398.28"
                   class="cls-25"
                   data-name="&lt;Контур&gt;"
                   id="_Контур_13" />
                <polygon
                   style="fill:#000000"
                   points="57.45 377.5 57.45 398.11 84.52 413.7 84.52 393.13 57.45 377.5"
                   class="cls-22"
                   data-name="&lt;Контур&gt;"
                   id="_Контур_14" />
                <polygon
                   points="57.09 398.28 84.52 414.11 84.52 413.7 57.45 398.11 57.09 398.28"
                   class="cls-26"
                   data-name="&lt;Контур&gt;"
                   id="_Контур_15" />
              </g>
            </g>
          </g>
        </g>
        <path
           d="M25.74,372.45c-.69,1.72,1.07,3.84,5.76,5.31s5.12-.42,5.12-.42a94.61,94.61,0,0,1,9.13,4.7c2.81,2,4.06,7.67,4.44,17.29.44,11.14.48,27.66.11,30.51,0,0-5.27,5.24-12,4.69S20.22,428,17.47,423.41c.07-9.76,1.22-11.35-.36-17-3.62-12.87-5.53-18.15-3.77-26.7,1.45-7.05,3.48-7.93,6.27-7.86A58,58,0,0,1,25.74,372.45Z"
           class="cls-20"
           data-name="&lt;Контур&gt;"
           id="_Контур_16" />
        <path
           d="M61.27,411.27c-5.52,1.39-6.82-2.09-7.55-5C52,399.3,51,393,49.7,389c-1.54-4.68-3.16-5.43-5.44-6.34-2.67-1.07-5,1.19-4.07,7.14,1.05,7.05,2.43,12,5.06,20.33.69,2.18,2.23,6.05,4.54,7.92,2.86,2.3,7.15,2.2,13.66.59,2.77-.69,5.81-2.35,11-4.8,1.41-.65,2.51-1.09,5.21-2.35a18.5,18.5,0,0,0,6.93-5.41c1.42-2.05,1.61-3,1.32-3.48s-1-.46-1.76.4a15.2,15.2,0,0,1-4,3.69s1.74-1.81,2.69-3A14.63,14.63,0,0,0,87,400.31c.5-1.19-.53-2.82-1.31-2s-1.16,1.73-2.59,3.44a14.72,14.72,0,0,1-2.56,2.44,27.44,27.44,0,0,0,2.36-3.79,6.25,6.25,0,0,0,.86-3.44c0-.62-.92-1.36-1.75-.18s-1.23,2.73-3,4.54c-1.26,1.31-2.33,2.06-2.37,1.7s.77-1.09,1.22-2.61,0-3.14-.85-3.32-.68-.13-1.35,1.3S74,400.9,73.17,403a9.23,9.23,0,0,1-2.27,3.91C69.54,408.35,66.53,410,61.27,411.27Z"
           class="cls-17"
           data-name="&lt;Контур&gt;"
           id="_Контур_17" />
        <path
           d="M42.22,381.73c3.69-.55,6.3,1.11,7.93,6.71s2.77,10.19,2.77,10.19a10.06,10.06,0,0,1-6.19,4.11c-4.41,1.06-6-1.05-6-1.05s-1.23-5.86-2-9.85S37.65,382.4,42.22,381.73Z"
           class="cls-18"
           data-name="&lt;Контур&gt;"
           id="_Контур_18" />
        <path
           style="fill:#000000"
           id="path1104"
           d="M44,353.08s5.83-8.87-6.81-10.67c-9.12-1.31-15,4.55-15.65,10.91-.65,6.07,3.09,12.38,5.79,14.88,1.32.47,4.15.74,7.88-.95a44,44,0,0,0,.17-5S31,352.92,44,353.08Z"
           class="cls-22" />
      </g>
      <polygon
         id="polygon1107"
         points="69.34 465.31 69.34 438.67 48.19 451.02 56.34 467.87 69.34 465.31"
         class="cls-14" />
      <polygon
         id="polygon1109"
         points="55.48 440.21 63.6 435.5 69.34 438.81 60.92 443.59 55.48 440.21"
         class="cls-1" />
    </g>
  </g>
</svg>
